# 3ds Max Wavefront OBJ Exporter v0.97b - (c)2007 guruware
# File Created: 11.10.2013 16:30:30

#
# object Rock_Pebble_01
#

v  24.0788 -0.3556 47.0661
v  23.8606 5.2052 51.1758
v  27.6096 2.8589 51.9273
v  50.9725 3.8167 -35.6864
v  54.2530 3.5106 -36.7537
v  51.6204 1.6542 -40.1332
v  47.6373 3.6782 16.9129
v  53.1365 -0.3556 17.3448
v  49.7806 2.7273 13.2829
v  -20.2307 -0.3556 -51.6904
v  -15.9860 5.2024 -50.7652
v  -17.3135 2.7246 -53.7302
v  -21.7579 2.5570 15.6773
v  -17.6524 3.7438 9.8135
v  -21.4413 5.3166 11.3507
v  -18.9487 2.1125 -47.6197
v  24.3580 3.3296 57.8828
v  24.1889 -0.3556 57.6825
v  29.8486 -0.3556 55.8002
v  21.4878 6.1219 55.3963
v  17.0690 2.1527 52.9943
v  18.1841 3.6118 57.8308
v  -25.3818 2.9281 14.7836
v  -26.1893 4.1264 6.1719
v  -29.2862 1.5278 12.2312
v  -25.1239 3.4358 4.9543
v  -19.5277 1.7799 6.6218
v  -25.6657 0.7183 5.1112
v  12.5978 1.1605 -26.8037
v  16.8181 3.2541 -29.9172
v  12.9497 1.5407 -30.6249
v  -28.1300 0.8605 -27.8711
v  -31.7660 2.5641 -30.2043
v  -31.0586 2.4592 -27.5640
v  15.2784 -0.1012 -25.9111
v  14.2218 -0.3556 -34.6545
v  18.5629 1.9855 -32.3615
v  18.9285 -0.3556 -32.5358
v  18.9275 1.0866 26.2139
v  21.1468 -0.3556 28.7701
v  22.0602 1.8667 27.2417
v  -12.4450 3.5497 -50.7086
v  -15.6003 4.6746 -46.8306
v  -10.8768 -0.3556 -46.1059
v  -10.4548 -0.3556 -54.2975
v  -10.7264 0.4681 -55.1348
v  54.7284 -0.3556 -40.1386
v  56.1024 -0.3556 -37.4522
v  52.2925 -0.3556 -28.7074
v  53.5080 3.9897 -32.7559
v  50.0362 2.9952 -33.0366
v  49.1225 -0.3556 -38.4662
v  48.6492 2.4782 -37.5883
v  48.4807 -0.3556 -32.5340
v  -18.1785 -0.3556 14.0561
v  -15.8646 -0.3556 10.1977
v  -16.8005 -0.3556 8.1469
v  -25.5759 -0.3556 6.0212
v  46.8733 -0.3556 22.2606
v  45.6720 2.7710 19.4411
v  44.1089 -0.3556 20.6546
v  45.3783 2.7290 16.4643
v  50.5679 0.6397 11.6123
v  44.7338 -0.3556 14.1016
v  22.0155 -0.3556 22.9436
v  21.0803 2.0583 23.8946
v  23.7836 -0.3556 24.4366
v  20.4930 0.9030 23.1969
v  18.5534 0.7640 24.1756
v  -14.7499 2.3214 -44.7576
v  -15.6903 -0.3556 -44.2623
v  -20.2992 -0.3556 -49.4695
v  19.7641 2.1330 48.4879
v  -55.9739 0.8837 -10.5222
v  -52.5580 -0.3556 -9.5871
v  -53.5305 1.8790 -12.8532
v  -30.2584 -0.3293 9.8917
v  13.2233 1.2887 -34.8029
v  12.0507 1.8292 -32.1746
v  17.0690 3.7660 -31.3131
v  24.0755 -0.3556 26.6842
v  22.4567 -0.3556 28.7539
v  -28.7896 -0.3556 -30.8381
v  -31.1159 0.6128 -32.2725
v  55.3049 0.7283 -33.1041
v  30.4391 1.5956 55.3097
v  23.2493 5.3142 57.1514
v  49.7429 1.3473 20.9289
v  -56.7274 -0.3556 -12.5306
v  55.1740 -0.3556 -30.2274
v  54.1193 1.5037 -31.2775
v  6.1932 0.8950 -59.3978
v  4.4309 0.9674 -56.9557
v  5.8897 1.1406 -55.8030
v  20.9921 -0.3556 59.7939
v  19.8614 2.5073 59.3999
v  -11.9064 -0.3556 -56.0276
v  -24.8569 -0.3556 15.3093
v  48.2514 2.4113 -34.8050
v  30.6666 -0.3556 53.1374
v  -11.4415 -0.3556 -48.5460
v  51.7066 0.7223 14.5018
v  51.7883 -0.3556 14.0934
v  49.2520 -0.3519 11.5680
v  16.8821 -0.3556 54.2533
v  17.7597 -0.3556 58.8053
v  18.4904 -0.3556 -28.5111
v  -32.2879 -0.3556 -32.1325
v  -34.0984 -0.2133 -28.5874
v  -33.0505 1.7200 -30.1718
v  -32.6222 0.6506 -26.2724
v  43.0626 -0.3556 17.3430
v  52.6023 -0.3556 -40.9421
v  -18.2617 3.1358 7.6543
v  -28.7988 -0.2510 -25.8102
v  7.0050 1.3616 -56.5442
v  8.0848 -0.3556 -57.6882
v  11.6347 -0.3556 -32.6057
v  11.9207 1.0318 -34.2775
v  12.3303 -0.3556 -29.5171
v  22.4920 2.0925 24.8890
v  -53.9175 -0.3556 -14.6613
v  -51.8113 0.3549 -14.2608
v  -51.1210 -0.3556 -10.9914
v  -50.9624 -0.3556 -13.9037
v  19.5477 -0.3556 48.3370
v  18.2755 -0.3556 49.6076
v  -33.9867 -0.3556 -25.6916
v  56.7274 -0.3556 -31.7768
v  4.1493 -0.3556 -58.9340
v  -21.2778 -0.3556 15.5670
v  30.6420 1.5226 53.3427
v  11.2594 -0.3556 -27.9395
v  18.8114 -0.3556 23.5448
v  20.1608 -0.3556 22.8220
v  18.5675 -0.3556 25.3579
v  49.1152 -0.3556 22.0314
v  4.5804 -0.3556 -56.0345
v  6.9463 -0.3556 -55.6292
v  19.3429 -0.3556 25.9734
v  -56.7128 -0.3556 -10.1969
v  12.1292 -0.2693 -26.5451
v  6.2673 -0.3556 -59.7938
v  -27.6655 -0.3556 -28.4192
# 144 vertices

vn 0.2405 0.4674 -0.8507
vn 0.1837 0.8789 -0.4402
vn 0.5886 0.6449 -0.4875
vn -0.2129 0.9678 -0.1343
vn 0.5268 0.8063 -0.2689
vn -0.1709 0.5460 -0.8202
vn 0.0710 0.9974 0.0120
vn 0.7301 0.6723 0.1221
vn 0.1575 0.8357 -0.5260
vn -0.8202 0.4492 -0.3544
vn -0.1747 0.9625 -0.2075
vn -0.4725 0.4930 -0.7306
vn 0.2018 0.4594 0.8650
vn 0.6975 0.7162 0.0243
vn 0.1207 0.9799 0.1587
vn -0.8078 0.4185 0.4151
vn 0.3849 0.2924 0.8754
vn 0.4397 -0.0691 0.8955
vn 0.6668 -0.0562 0.7431
vn -0.1751 0.9827 0.0607
vn -0.8900 0.4120 -0.1953
vn -0.6827 0.5923 0.4280
vn -0.4091 0.5899 0.6962
vn -0.4860 0.7552 -0.4399
vn -0.8283 0.3139 0.4640
vn -0.1219 0.4571 -0.8810
vn 0.3645 -0.0195 -0.9310
vn -0.2542 -0.3089 -0.9165
vn -0.4849 0.6908 0.5363
vn 0.2991 0.8527 0.4284
vn -0.7017 0.6694 0.2440
vn 0.7717 0.6264 0.1099
vn -0.0628 0.9420 -0.3296
vn -0.0023 0.9256 0.3784
vn 0.2213 0.6141 0.7576
vn 0.1122 -0.0988 -0.9888
vn 0.8654 0.4066 -0.2930
vn 0.8648 0.3002 -0.4025
vn -0.7597 0.4892 0.4284
vn -0.3014 0.5066 0.8078
vn 0.1944 0.8501 0.4894
vn 0.6872 0.7248 -0.0488
vn -0.0367 0.8717 0.4887
vn 0.7952 0.4425 0.4147
vn 0.9776 0.1922 -0.0855
vn 0.7336 0.3619 -0.5752
vn 0.5447 0.5494 -0.6336
vn 0.8454 0.4971 -0.1957
vn -0.0786 0.6339 0.7694
vn 0.3342 0.8632 0.3784
vn -0.4890 0.7314 0.4753
vn -0.8277 0.0119 -0.5611
vn -0.7561 0.5063 -0.4147
vn -0.8533 0.2624 0.4505
vn 0.6735 0.3804 0.6338
vn 0.9158 0.3949 0.0732
vn 0.7480 0.1431 -0.6481
vn -0.1526 -0.6218 -0.7682
vn -0.1572 0.5900 0.7919
vn -0.4044 0.8083 0.4280
vn -0.6611 0.5354 0.5256
vn -0.5951 0.7486 -0.2924
vn 0.4181 0.1546 -0.8951
vn -0.5638 0.5700 -0.5977
vn 0.3847 0.4336 -0.8148
vn -0.0034 0.8657 -0.5005
vn 0.7614 0.4980 -0.4150
vn -0.1492 0.4604 -0.8751
vn -0.8242 0.4519 -0.3414
vn 0.0992 0.4876 0.8674
vn -0.2412 0.1698 0.9555
vn -0.9131 0.3645 0.1827
vn -0.4400 0.5042 -0.7431
vn -0.4437 0.7804 0.4407
vn 0.2518 0.7873 0.5628
vn 0.0355 0.9825 -0.1830
vn -0.9715 0.2103 -0.1098
vn -0.1507 0.4304 -0.8900
vn -0.7576 0.6388 0.1343
vn 0.2884 0.9556 -0.0610
vn 0.8061 0.5496 0.2195
vn 0.3458 0.5699 0.7454
vn 0.6443 0.5548 -0.5264
vn 0.1797 0.2855 -0.9414
vn 0.7576 0.6498 0.0614
vn 0.7910 0.4139 0.4505
vn 0.2520 0.8133 0.5245
vn 0.4715 0.6236 0.6235
vn -0.6462 0.6882 -0.3298
vn 0.4715 0.6227 0.6245
vn 0.5890 0.5913 0.5508
vn 0.1304 0.7188 -0.6828
vn -0.7157 0.6830 0.1461
vn -0.1160 0.6966 0.7080
vn 0.1327 0.0796 0.9879
vn -0.1583 0.3753 0.9133
vn 0.1360 0.4035 -0.9048
vn -0.3633 -0.0157 0.9315
vn -0.8892 0.4440 0.1102
vn 0.9117 0.0849 -0.4021
vn 0.9750 0.1996 -0.0977
vn 0.8487 0.4484 -0.2804
vn 0.9055 0.0862 -0.4155
vn -0.1904 0.2939 -0.9367
vn -0.9962 0.0840 0.0248
vn -0.7578 0.1509 0.6348
vn 0.7591 0.5107 0.4036
vn -0.4753 0.1595 -0.8652
vn -0.8236 0.5666 0.0244
vn -0.7507 0.5979 -0.2810
vn -0.3281 0.7115 0.6214
vn -0.8354 0.5463 -0.0608
vn -0.0053 0.3712 -0.9285
vn 0.5564 0.5749 -0.6000
vn 0.4183 0.5950 0.6863
vn 0.4749 0.8455 0.2441
vn 0.8640 0.4884 -0.1221
vn -0.9986 -0.0214 -0.0488
vn -0.7460 0.2016 -0.6348
vn -0.8879 0.4573 -0.0488
vn 0.4913 0.8361 -0.2439
vn -0.2476 0.5598 -0.7908
vn 0.4570 0.5054 -0.7319
vn 0.5363 0.8002 0.2684
vn 0.7004 0.6396 -0.3169
vn -0.5091 0.0963 -0.8553
vn -0.8358 0.1558 -0.5264
vn -0.4265 0.8098 0.4028
vn 0.6203 0.7627 0.1831
vn -0.7148 0.5327 -0.4532
vn 0.2167 -0.0013 0.9762
vn 0.8076 0.4626 -0.3658
vn -0.6956 0.7080 -0.1221
vn -0.7124 0.2102 -0.6695
vn -0.2268 0.3324 -0.9155
vn -0.9449 -0.0799 0.3174
vn 0.3292 0.4250 0.8432
vn -0.6978 0.1731 0.6950
vn 0.4701 0.2267 0.8530
vn -0.7084 -0.3095 0.6344
vn -0.6645 0.5328 0.5239
vn -0.5868 0.3255 0.7414
vn 0.2183 0.3061 -0.9267
vn 0.9133 0.3955 -0.0975
# 144 vertex normals

vt 0.5004 0.4296 0.0000
vt 0.6340 0.3141 0.0000
vt 0.6684 0.4117 0.0000
vt 0.2403 0.3698 0.0000
vt 0.2320 0.4752 0.0000
vt 0.0878 0.4446 0.0000
vt 0.5721 0.7252 0.0000
vt 0.7091 0.9310 0.0000
vt 0.5013 0.8350 0.0000
vt 0.4969 0.3644 0.0000
vt 0.7025 0.4354 0.0000
vt 0.5952 0.4515 0.0000
vt 0.8676 0.2048 0.0000
vt 0.8154 0.3985 0.0000
vt 0.7640 0.2885 0.0000
vt 0.6896 0.3082 0.0000
vt 0.8050 0.2818 0.0000
vt 0.8951 0.2764 0.0000
vt 0.8452 0.4605 0.0000
vt 0.7356 0.2475 0.0000
vt 0.6304 0.1414 0.0000
vt 0.7665 0.1386 0.0000
vt 0.8032 0.1577 0.0000
vt 0.5922 0.2601 0.0000
vt 0.7014 0.1125 0.0000
vt 0.5703 0.3454 0.0000
vt 0.6908 0.4420 0.0000
vt 0.5228 0.3980 0.0000
vt 0.3893 0.2642 0.0000
vt 0.3239 0.4581 0.0000
vt 0.2532 0.3124 0.0000
vt 0.3788 0.7160 0.0000
vt 0.2127 0.6806 0.0000
vt 0.2911 0.6422 0.0000
vt 0.4848 0.3123 0.0000
vt 0.2792 0.7744 0.0000
vt 0.3024 0.5684 0.0000
vt 0.4016 0.6205 0.0000
vt 0.5916 0.7593 0.0000
vt 0.7174 0.7748 0.0000
vt 0.6482 0.8496 0.0000
vt 0.7525 0.5337 0.0000
vt 0.7812 0.3919 0.0000
vt 0.9828 0.4386 0.0000
vt 0.7070 0.7080 0.0000
vt 0.6521 0.6949 0.0000
vt 0.0931 0.5934 0.0000
vt 0.2369 0.6295 0.0000
vt 0.4975 0.2585 0.0000
vt 0.3429 0.4119 0.0000
vt 0.3040 0.3011 0.0000
vt 0.0607 0.3284 0.0000
vt 0.1591 0.3278 0.0000
vt 0.2509 0.1654 0.0000
vt 0.9604 0.2868 0.0000
vt 0.9423 0.4228 0.0000
vt 0.7578 0.5171 0.0000
vt 0.5145 0.4432 0.0000
vt 0.7822 0.6086 0.0000
vt 0.6326 0.6402 0.0000
vt 0.6627 0.5204 0.0000
vt 0.5386 0.6474 0.0000
vt 0.4625 0.8774 0.0000
vt 0.3784 0.6699 0.0000
vt 0.4914 0.9113 0.0000
vt 0.5437 0.8496 0.0000
vt 0.5798 0.9652 0.0000
vt 0.5066 0.8365 0.0000
vt 0.5259 0.7644 0.0000
vt 0.8571 0.3612 0.0000
vt 0.8505 0.2622 0.0000
vt 0.5829 0.2923 0.0000
vt 0.5235 0.2555 0.0000
vt 0.4282 0.7558 0.0000
vt 0.5791 0.7592 0.0000
vt 0.4524 0.8673 0.0000
vt 0.5107 0.2164 0.0000
vt 0.6332 0.0851 0.0000
vt 0.2194 0.7627 0.0000
vt 0.1336 0.7625 0.0000
vt 0.1345 0.5671 0.0000
vt 0.6800 0.9399 0.0000
vt 0.7326 0.8411 0.0000
vt 0.2962 0.8158 0.0000
vt 0.1787 0.7654 0.0000
vt 0.3912 0.5260 0.0000
vt 0.7861 0.4630 0.0000
vt 0.7713 0.2638 0.0000
vt 0.7462 0.7472 0.0000
vt 0.3275 0.7988 0.0000
vt 0.5106 0.4356 0.0000
vt 0.4245 0.4257 0.0000
vt 0.6722 0.6616 0.0000
vt 0.6109 0.5897 0.0000
vt 0.6512 0.5518 0.0000
vt 0.8769 0.1421 0.0000
vt 0.8173 0.1520 0.0000
vt 0.6215 0.6792 0.0000
vt 0.8435 0.0883 0.0000
vt 0.2307 0.2682 0.0000
vt 0.7557 0.4996 0.0000
vt 0.8986 0.5571 0.0000
vt 0.5656 0.9153 0.0000
vt 0.5514 0.9385 0.0000
vt 0.4375 0.8621 0.0000
vt 0.6319 0.0780 0.0000
vt 0.7854 0.0499 0.0000
vt 0.4899 0.4805 0.0000
vt 0.1543 0.7611 0.0000
vt 0.1453 0.5982 0.0000
vt 0.1847 0.6624 0.0000
vt 0.2700 0.5483 0.0000
vt 0.4952 0.5297 0.0000
vt 0.0386 0.5026 0.0000
vt 0.7471 0.4249 0.0000
vt 0.4243 0.6164 0.0000
vt 0.6783 0.5730 0.0000
vt 0.7371 0.5802 0.0000
vt 0.1685 0.8351 0.0000
vt 0.1936 0.7828 0.0000
vt 0.0486 0.8489 0.0000
vt 0.0868 0.7573 0.0000
vt 0.5789 0.8787 0.0000
vt 0.3797 0.9506 0.0000
vt 0.4634 0.9609 0.0000
vt 0.5968 0.8694 0.0000
vt 0.5078 0.9803 0.0000
vt 0.2800 0.2274 0.0000
vt 0.4625 0.2596 0.0000
vt 0.5024 0.1799 0.0000
vt 0.2279 0.4982 0.0000
vt 0.4687 0.5440 0.0000
vt 0.8332 0.5229 0.0000
vt 0.6044 0.6783 0.0000
vt 0.9297 0.1693 0.0000
vt 0.7391 0.4716 0.0000
vt 0.3472 0.1921 0.0000
vt 0.4888 0.7659 0.0000
vt 0.4674 0.8301 0.0000
vt 0.5478 0.7173 0.0000
vt 0.8002 0.7080 0.0000
vt 0.5849 0.5643 0.0000
vt 0.6654 0.5142 0.0000
vt 0.5978 0.7182 0.0000
vt 0.2716 0.4904 0.0000
vt 0.4020 0.7192 0.0000
vt 0.4066 0.2172 0.0000
vt 0.5643 0.3154 0.0000
vt 0.6913 0.6796 0.0000
vt 0.4032 0.7512 0.0000
vt 0.5005 0.1806 0.0000
# 151 texture coords

g Rock_Pebble_01
s 1
f 1/1/1 2/2/2 3/3/3 
f 4/4/4 5/5/5 6/6/6 
f 7/7/7 8/8/8 9/9/9 
f 10/10/10 11/11/11 12/12/12 
f 13/13/13 14/14/14 15/15/15 
f 16/16/16 11/11/11 10/10/10 
f 17/17/17 18/18/18 19/19/19 
f 20/20/20 21/21/21 22/22/22 
f 23/23/23 24/24/24 25/25/25 
f 26/26/26 27/27/27 28/28/28 
f 29/29/29 30/30/30 31/31/31 
f 32/32/32 33/33/33 34/34/34 
f 35/35/35 30/30/30 29/29/29 
f 36/36/36 37/37/37 38/38/38 
f 39/39/39 40/40/40 41/41/41 
f 42/42/42 43/43/43 44/44/44 
f 45/45/45 46/46/46 42/42/42 
f 47/47/47 5/5/5 48/48/48 
f 49/49/49 50/50/50 51/51/51 
f 52/52/52 53/53/53 6/6/6 
f 51/51/51 54/54/54 49/49/49 
f 14/14/14 55/55/55 56/56/56 
f 27/27/27 57/57/57 58/58/58 
f 59/59/59 60/60/60 61/61/61 
f 62/62/62 63/63/63 64/64/64 
f 65/65/65 66/66/66 67/67/67 
f 68/68/68 69/69/69 66/66/66 
f 44/44/44 70/70/70 71/71/71 
f 71/71/71 16/16/16 72/72/72 
f 73/73/73 2/2/2 1/1/1 
f 74/74/74 75/75/75 76/76/76 
f 24/24/24 28/77/28 77/78/77 
f 78/79/78 79/80/79 80/81/80 
f 81/82/81 41/41/41 82/83/82 
f 33/33/33 83/84/83 84/85/84 
f 48/48/48 5/5/5 85/86/85 
f 4/4/4 50/50/50 5/5/5 
f 86/87/86 2/2/2 87/88/87 
f 20/20/20 22/22/22 87/88/87 
f 7/7/7 88/89/88 8/8/8 
f 74/74/74 76/76/76 89/90/89 
f 90/91/90 91/92/91 49/49/49 
f 92/93/92 93/94/93 94/95/94 
f 95/96/95 17/17/17 96/97/96 
f 97/98/97 10/10/10 12/12/12 
f 46/46/46 12/12/12 11/11/11 
f 55/55/55 14/14/14 13/13/13 
f 98/99/98 23/23/23 25/25/25 
f 54/54/54 51/51/51 99/100/99 
f 4/4/4 6/6/6 53/53/53 
f 3/3/3 100/101/100 1/1/1 
f 19/19/19 86/87/86 17/17/17 
f 101/102/101 42/42/42 44/44/44 
f 102/103/102 8/8/8 103/104/103 
f 104/105/104 64/64/64 63/63/63 
f 21/21/21 20/20/20 73/73/73 
f 21/21/21 105/106/105 106/107/106 
f 37/37/37 30/30/30 38/38/38 
f 78/79/78 80/81/80 37/37/37 
f 107/108/107 30/30/30 35/35/35 
f 108/109/108 109/110/109 110/111/110 
f 110/111/110 109/110/109 111/112/111 
f 11/11/11 16/16/16 43/43/43 
f 71/71/71 70/70/70 16/16/16 
f 62/62/62 64/64/64 112/113/112 
f 5/5/5 50/50/50 85/86/85 
f 91/92/91 50/50/50 49/49/49 
f 66/66/66 69/69/69 39/39/39 
f 5/5/5 47/47/47 6/6/6 
f 6/6/6 113/114/113 52/52/52 
f 26/26/26 15/15/15 114/115/114 
f 23/23/23 15/15/15 24/24/24 
f 32/32/32 34/34/34 115/116/115 
f 116/117/116 117/118/117 92/93/92 
f 118/119/118 79/80/79 119/120/119 
f 120/121/120 31/122/31 118/119/118 
f 11/11/11 42/42/42 46/46/46 
f 43/43/43 42/42/42 11/11/11 
f 54/54/54 53/53/53 52/52/52 
f 22/22/22 21/21/21 106/107/106 
f 95/96/95 96/97/96 106/107/106 
f 66/66/66 39/39/39 41/41/41 
f 121/123/121 67/67/67 66/66/66 
f 122/124/122 76/76/76 123/125/123 
f 124/126/124 125/127/125 76/76/76 
f 118/119/118 119/120/119 36/36/36 
f 78/79/78 37/37/37 36/36/36 
f 29/29/29 31/31/31 120/128/120 
f 1/1/1 126/129/126 73/73/73 
f 73/73/73 127/130/127 21/21/21 
f 99/100/99 51/51/51 4/4/4 
f 51/51/51 50/50/50 4/4/4 
f 109/110/109 128/131/128 111/112/111 
f 111/112/111 128/131/128 115/116/115 
f 57/57/57 27/27/27 114/115/114 
f 114/115/114 27/27/27 26/26/26 
f 85/86/85 129/132/129 48/48/48 
f 83/84/83 33/33/33 32/32/32 
f 42/42/42 101/102/101 45/45/45 
f 20/20/20 87/88/87 2/2/2 
f 73/73/73 20/20/20 2/2/2 
f 76/76/76 122/124/122 89/90/89 
f 60/60/60 62/62/62 112/113/112 
f 60/60/60 88/89/88 7/7/7 
f 57/57/57 114/115/114 56/133/56 
f 93/94/93 92/93/92 130/134/130 
f 44/44/44 43/43/43 70/70/70 
f 43/43/43 16/16/16 70/70/70 
f 13/13/13 98/99/98 131/135/131 
f 86/87/86 3/3/3 2/2/2 
f 100/101/100 3/3/3 132/136/132 
f 104/105/104 63/63/63 103/104/103 
f 25/25/25 77/78/77 98/99/98 
f 24/24/24 77/78/77 25/25/25 
f 133/137/133 29/29/29 120/128/120 
f 38/38/38 30/30/30 107/108/107 
f 134/138/134 69/69/69 135/139/135 
f 39/39/39 69/69/69 136/140/136 
f 50/50/50 91/92/91 85/86/85 
f 91/92/91 129/132/129 85/86/85 
f 59/59/59 88/89/88 60/60/60 
f 8/8/8 88/89/88 137/141/137 
f 81/82/81 121/123/121 41/41/41 
f 66/66/66 41/41/41 121/123/121 
f 94/95/94 116/117/116 92/93/92 
f 94/95/94 138/142/138 139/143/139 
f 113/114/113 6/6/6 47/47/47 
f 40/40/40 39/39/39 140/144/140 
f 140/144/140 39/39/39 136/140/136 
f 61/61/61 60/60/60 112/113/112 
f 14/14/14 56/133/56 114/115/114 
f 14/14/14 114/115/114 15/15/15 
f 100/101/100 86/87/86 19/19/19 
f 124/126/124 76/76/76 75/75/75 
f 30/30/30 37/37/37 80/145/80 
f 80/145/80 31/31/31 30/30/30 
f 141/146/141 74/74/74 89/90/89 
f 75/75/75 74/74/74 141/146/141 
f 41/41/41 40/40/40 82/83/82 
f 9/9/9 8/8/8 102/103/102 
f 63/63/63 62/62/62 9/9/9 
f 121/123/121 81/82/81 67/67/67 
f 96/97/96 87/88/87 22/22/22 
f 106/107/106 96/97/96 22/22/22 
f 13/13/13 131/135/131 55/55/55 
f 115/116/115 34/34/34 111/112/111 
f 111/112/111 34/34/34 110/111/110 
f 29/29/29 133/137/133 142/147/142 
f 35/35/35 29/29/29 142/147/142 
f 24/148/24 26/26/26 28/28/28 
f 26/26/26 24/148/24 15/15/15 
f 130/134/130 92/93/92 143/149/143 
f 143/149/143 92/93/92 117/118/117 
f 105/106/105 21/21/21 127/130/127 
f 65/65/65 68/68/68 66/66/66 
f 83/84/83 108/109/108 84/85/84 
f 108/109/108 110/111/110 84/85/84 
f 98/99/98 13/13/13 23/23/23 
f 13/13/13 15/15/15 23/23/23 
f 132/136/132 86/87/86 100/101/100 
f 132/136/132 3/3/3 86/87/86 
f 97/98/97 12/12/12 46/46/46 
f 97/98/97 46/46/46 45/45/45 
f 72/72/72 16/16/16 10/10/10 
f 96/97/96 17/17/17 87/88/87 
f 87/88/87 17/17/17 86/87/86 
f 53/53/53 54/54/54 99/100/99 
f 53/53/53 99/100/99 4/4/4 
f 33/33/33 110/111/110 34/34/34 
f 33/33/33 84/85/84 110/111/110 
f 18/18/18 17/17/17 95/96/95 
f 62/62/62 60/60/60 7/7/7 
f 62/62/62 7/7/7 9/9/9 
f 116/117/116 94/95/94 139/143/139 
f 139/143/139 117/118/117 116/117/116 
f 69/69/69 134/138/134 136/140/136 
f 144/150/144 32/32/32 115/116/115 
f 32/32/32 144/150/144 83/84/83 
f 129/132/129 91/92/91 90/91/90 
f 103/104/103 63/63/63 102/103/102 
f 63/63/63 9/9/9 102/103/102 
f 31/122/31 79/80/79 118/119/118 
f 31/122/31 80/81/80 79/80/79 
f 127/130/127 73/73/73 126/129/126 
f 28/28/28 27/27/27 58/58/58 
f 28/77/28 58/151/58 77/78/77 
f 94/95/94 93/94/93 138/142/138 
f 138/142/138 93/94/93 130/134/130 
f 122/124/122 123/125/123 125/127/125 
f 123/125/123 76/76/76 125/127/125 
f 119/120/119 78/79/78 36/36/36 
f 78/79/78 119/120/119 79/80/79 
f 137/141/137 88/89/88 59/59/59 
f 68/68/68 65/65/65 135/139/135 
f 135/139/135 69/69/69 68/68/68 
# 0 polygons - 195 triangles

