# 3ds Max Wavefront OBJ Exporter v0.97b - (c)2007 guruware
# File Created: 11.10.2013 16:34:35

#
# object Rock_A_02
#

v  0.7012 0.0556 -0.1925
v  0.6928 -0.5998 -0.2144
v  0.5551 -0.5270 -0.6942
v  -0.4422 -0.1089 0.9381
v  -0.8439 0.1572 0.5913
v  -0.2104 -0.6579 0.7188
v  0.1169 -0.1029 -1.0336
v  0.4939 0.3847 -0.8960
v  0.6301 -0.1374 -0.9192
v  -0.3146 -0.8951 -0.5207
v  -0.3170 -0.7244 -0.8583
v  0.1563 -0.9519 -0.6914
v  0.5092 0.5825 -0.3020
v  0.7106 0.1314 -0.6723
v  -0.6163 0.4187 0.8078
v  -0.4348 0.5474 -0.0795
v  -0.8396 -0.0125 0.2879
v  -0.3251 -0.6417 0.1458
v  -0.5868 -0.5796 0.4913
v  0.7332 0.3692 0.4185
v  0.4058 -0.5917 0.5031
v  -0.1865 0.7079 0.6122
v  0.0405 0.9519 0.2940
v  -0.2321 0.9424 -0.0001
v  -0.0551 0.1802 0.7421
v  0.1387 -0.1599 0.7196
v  0.5794 0.3837 0.6428
v  -0.6284 0.0994 -0.3884
v  -0.1154 -0.1793 -0.8412
v  -0.7632 0.1761 0.0837
v  -0.5857 -0.5583 -0.5749
v  -0.5848 -0.3320 -0.1996
v  0.5372 0.5286 -0.6832
v  -0.2426 0.7814 -0.2249
v  0.2923 0.8494 -0.1648
v  0.4008 -0.9209 -0.1468
v  0.2269 -0.7513 0.3536
v  -0.0404 -0.7474 0.1869
v  0.3038 -0.5281 -0.7965
v  0.3494 -0.4568 0.6261
v  0.8439 0.0872 0.1050
v  -0.2826 0.2449 0.9138
v  0.4371 -0.7535 -0.8140
v  -0.3390 0.7494 0.4650
# 44 vertices

vn 0.9587 0.0989 -0.2668
vn 0.9177 -0.3972 0.0126
vn 0.8194 -0.2427 -0.5193
vn -0.2934 -0.2672 0.9179
vn -0.9396 0.1474 0.3088
vn -0.1156 -0.7180 0.6864
vn -0.3488 0.0399 -0.9364
vn 0.2182 0.5913 -0.7764
vn 0.6966 -0.1817 -0.6941
vn -0.5012 -0.8652 -0.0164
vn -0.4264 -0.3710 -0.8249
vn 0.1008 -0.9100 -0.4022
vn 0.8407 0.5415 -0.0048
vn 0.9733 0.1325 -0.1873
vn -0.5770 0.5204 0.6295
vn -0.8186 0.5447 -0.1824
vn -0.9759 -0.1755 -0.1300
vn -0.5648 -0.8252 0.0007
vn -0.7091 -0.6751 0.2034
vn 0.9059 0.3731 0.2003
vn 0.6255 -0.5802 0.5217
vn 0.1836 0.6829 0.7071
vn 0.1786 0.9134 0.3658
vn -0.4515 0.8750 -0.1747
vn 0.4389 0.3060 0.8449
vn 0.2836 -0.0842 0.9552
vn 0.5359 0.3172 0.7824
vn -0.7755 0.3188 -0.5450
vn -0.4422 0.1572 -0.8831
vn -0.9148 0.3251 -0.2396
vn -0.9137 -0.2980 -0.2765
vn -0.8495 -0.5049 0.1531
vn 0.4688 0.7560 -0.4569
vn -0.4725 0.6506 -0.5945
vn 0.4354 0.8834 -0.1733
vn 0.3850 -0.9007 0.2011
vn 0.2225 -0.9145 0.3380
vn -0.2534 -0.9632 0.0893
vn 0.1482 -0.1350 -0.9797
vn 0.4925 -0.2984 0.8176
vn 0.9898 0.0144 0.1416
vn 0.2300 0.2590 0.9381
vn 0.5307 -0.3874 -0.7538
vn -0.5132 0.8230 0.2435
# 44 vertex normals

vt 0.5121 0.2738 0.0000
vt 0.4562 0.1723 0.0000
vt 0.5170 0.1762 0.0000
vt 0.3559 0.8501 0.0000
vt 0.2724 0.8719 0.0000
vt 0.3768 0.7674 0.0000
vt 0.5959 0.1740 0.0000
vt 0.6028 0.2445 0.0000
vt 0.5560 0.2111 0.0000
vt 0.5749 0.0777 0.0000
vt 0.5858 0.1060 0.0000
vt 0.5316 0.1151 0.0000
vt 0.6136 0.3003 0.0000
vt 0.5581 0.2477 0.0000
vt 0.7938 0.0762 0.0000
vt 0.8332 0.1290 0.0000
vt 0.7317 0.1673 0.0000
vt 0.2491 0.8029 0.0000
vt 0.3451 0.6971 0.0000
vt 0.3296 0.7622 0.0000
vt 0.5439 0.8573 0.0000
vt 0.4620 0.7420 0.0000
vt 0.5614 0.6950 0.0000
vt 0.8198 0.2067 0.0000
vt 0.7705 0.2574 0.0000
vt 0.7414 0.2232 0.0000
vt 0.4268 0.8815 0.0000
vt 0.4389 0.8205 0.0000
vt 0.5196 0.8673 0.0000
vt 0.6921 0.1229 0.0000
vt 0.6165 0.1508 0.0000
vt 0.7354 0.0925 0.0000
vt 0.6208 0.0897 0.0000
vt 0.6577 0.0660 0.0000
vt 0.6121 0.2619 0.0000
vt 0.7167 0.2127 0.0000
vt 0.6911 0.2798 0.0000
vt 0.4813 0.6526 0.0000
vt 0.4418 0.7157 0.0000
vt 0.3983 0.6923 0.0000
vt 0.4782 0.0784 0.0000
vt 0.7353 0.0515 0.0000
vt 0.5440 0.1585 0.0000
vt 0.4543 0.7642 0.0000
vt 0.5895 0.8207 0.0000
vt 0.6114 0.9614 0.0000
vt 0.5191 0.9880 0.0000
vt 0.3375 0.9295 0.0000
vt 0.3864 0.8948 0.0000
vt 0.6068 0.0105 0.0000
vt 0.5219 0.1499 0.0000
vt 0.4349 0.9636 0.0000
vt 0.7978 0.1912 0.0000
vt 0.6268 0.8010 0.0000
vt 0.6468 0.9025 0.0000
# 55 texture coords

g Rock_A_02
s 1
f 1/1/1 2/2/2 3/3/3 
f 4/4/4 5/5/5 6/6/6 
f 7/7/7 8/8/8 9/9/9 
f 10/10/10 11/11/11 12/12/12 
f 13/13/13 1/1/1 14/14/14 
f 5/15/5 15/16/15 16/17/16 
f 17/18/17 18/19/18 19/20/19 
f 20/21/20 21/22/21 2/23/2 
f 22/24/22 23/25/23 24/26/24 
f 25/27/25 26/28/26 27/29/27 
f 28/30/28 8/8/8 29/31/29 
f 30/32/30 31/33/31 32/34/32 
f 33/35/33 28/30/28 34/36/34 
f 24/26/24 23/25/23 35/37/35 
f 36/38/36 37/39/37 38/40/38 
f 10/10/10 12/12/12 36/41/36 
f 30/32/30 32/34/32 17/42/17 
f 5/15/5 16/17/16 30/32/30 
f 6/6/6 26/28/26 4/4/4 
f 38/40/38 37/39/37 6/6/6 
f 39/43/39 7/7/7 9/9/9 
f 3/3/3 14/14/14 1/1/1 
f 27/29/27 40/44/40 20/21/20 
f 41/45/41 35/46/35 23/47/23 
f 11/11/11 28/30/28 29/31/29 
f 39/43/39 11/11/11 29/31/29 
f 33/35/33 34/36/34 35/37/35 
f 13/13/13 14/14/14 33/35/33 
f 4/4/4 15/48/15 5/5/5 
f 26/28/26 25/27/25 42/49/42 
f 31/33/31 10/10/10 32/34/32 
f 36/41/36 18/50/18 10/10/10 
f 6/6/6 19/20/19 38/40/38 
f 19/20/19 6/6/6 5/5/5 
f 23/47/23 27/29/27 20/21/20 
f 23/47/23 25/27/25 27/29/27 
f 6/6/6 21/22/21 40/44/40 
f 20/21/20 40/44/40 21/22/21 
f 2/23/2 37/39/37 36/38/36 
f 43/51/43 2/2/2 36/41/36 
f 15/48/15 42/49/42 22/52/22 
f 15/16/15 22/24/22 44/53/44 
f 19/20/19 18/19/18 38/40/38 
f 18/19/18 36/38/36 38/40/38 
f 2/23/2 1/54/1 41/45/41 
f 1/54/1 13/55/13 41/45/41 
f 2/2/2 43/51/43 3/3/3 
f 39/43/39 43/51/43 11/11/11 
f 34/36/34 24/26/24 35/37/35 
f 16/17/16 15/16/15 44/53/44 
f 31/33/31 11/11/11 10/10/10 
f 31/33/31 28/30/28 11/11/11 
f 5/5/5 17/18/17 19/20/19 
f 30/32/30 17/42/17 5/15/5 
f 42/49/42 4/4/4 26/28/26 
f 42/49/42 15/48/15 4/4/4 
f 7/7/7 29/31/29 8/8/8 
f 29/31/29 7/7/7 39/43/39 
f 9/9/9 8/8/8 14/14/14 
f 14/14/14 3/3/3 9/9/9 
f 20/21/20 2/23/2 41/45/41 
f 41/45/41 23/47/23 20/21/20 
f 12/12/12 43/51/43 36/41/36 
f 43/51/43 12/12/12 11/11/11 
f 40/44/40 27/29/27 26/28/26 
f 40/44/40 26/28/26 6/6/6 
f 8/8/8 33/35/33 14/14/14 
f 8/8/8 28/30/28 33/35/33 
f 24/26/24 44/53/44 22/24/22 
f 24/26/24 16/17/16 44/53/44 
f 16/17/16 28/30/28 30/32/30 
f 30/32/30 28/30/28 31/33/31 
f 39/43/39 9/9/9 3/3/3 
f 39/43/39 3/3/3 43/51/43 
f 18/50/18 32/34/32 10/10/10 
f 17/42/17 32/34/32 18/50/18 
f 35/46/35 41/45/41 13/55/13 
f 13/13/13 33/35/33 35/37/35 
f 42/49/42 25/27/25 22/52/22 
f 25/27/25 23/47/23 22/52/22 
f 34/36/34 16/17/16 24/26/24 
f 28/30/28 16/17/16 34/36/34 
f 6/6/6 37/39/37 21/22/21 
f 21/22/21 37/39/37 2/23/2 
# 0 polygons - 84 triangles

